# xmcd
#
# Track frame offsets:
#	150
#	10592
#	23767
#	40037
#	57567
#	76855
#	96592
#	118205
#	132877
#	158252
#	172457
#	188317
#	212532
#	233840
#	244525
#	261260
#
# Disc length: 3687 seconds
#
# Revision: 1
# Processed by: cddbd v1.5.1PL0 Copyright (c) Steve Scherf et al.
# Submitted via: CDex 1.50Beta5
#
DISCID=c80e6510
DTITLE=さまざまなアーティスト - MOVIE THE BEST
DYEAR=1900
DGENRE=Soundtrack
TTITLE0=timothy b schmit/SO MUCH IN LOVE
TTITLE1=ben e king/STAND BY ME
TTITLE2=the beach boys/KOKOMO
TTITLE3=Christopher Cross/ARTHUR'S THEME
TTITLE4=stephen bishop/IT MIGHT BE YOU
TTITLE5=Peter Cetera/GLORY OF LOVE
TTITLE6=a-ha/THE LIVING DAYLIGHTS
TTITLE7=Ry Cooder/THE LONG  RIDERS
TTITLE8=paula cole/FEELIN'LOVE
TTITLE9=pierre bachelet/EMMANUELLE SONG
TTITLE10=david foster/LOVE THE ME FROM ST.ELMO'S FIRE
TTITLE11=julee cruise/FALLING
TTITLE12=dokken/DREAM WARRIORS
TTITLE13=Lalo Schifrin/THEME FROM ENTER THE DRAGON
TTITLE14=Bette Midler/THE  ROSE
TTITLE15=phil collins/AGAINST ALL ODDS
EXTD=
EXTT0=
EXTT1=
EXTT2=
EXTT3=
EXTT4=
EXTT5=
EXTT6=
EXTT7=
EXTT8=
EXTT9=
EXTT10=
EXTT11=
EXTT12=
EXTT13=
EXTT14=
EXTT15=
PLAYORDER=
